<?xml version="1.0" encoding="iso-8859-1"?>
<!-- Generator: Adobe Illustrator 19.0.0, SVG Export Plug-In . SVG Version: 6.00 Build 0)  -->
<svg version="1.1" id="Layer_1" xmlns="http://www.w3.org/2000/svg" xmlns:xlink="http://www.w3.org/1999/xlink" x="0px" y="0px"
	 viewBox="0 0 491.526 491.526" style="enable-background:new 0 0 491.526 491.526;" xml:space="preserve">
<g>
	<g>
		<g>
			<polygon points="245.78,337.128 182.559,479.361 177.705,491.526 312.934,491.526 308.265,477.518 			"/>
			<path d="M268.259,110.598l37.11-81.633c4.669-10.301,0.123-22.446-10.179-27.115c-10.363-4.71-22.446-0.102-27.116,10.179
				l-22.323,49.07l-22.303-49.07C218.779,1.747,206.696-2.861,196.313,1.85c-10.301,4.669-14.828,16.814-10.158,27.115l37.11,81.633
				l-159.99,351.99c-2.867,6.328-2.335,13.681,1.434,19.558c3.768,5.837,10.26,9.38,17.203,9.38h51.671l11.243-28.078
				l82.207-185.037c3.297-7.393,10.629-12.165,18.719-12.165c8.11,0,15.421,4.772,18.719,12.165l81.92,184.32l9.626,28.795h53.576
				c6.963,0,13.455-3.543,17.224-9.38c3.768-5.878,4.301-13.23,1.434-19.558L268.259,110.598z"/>
			<path d="M81.92,348.168c11.325,0,20.48-9.175,20.48-20.48v-81.92h40.96c7.762,0,14.848-4.383,18.33-11.325
				c3.441-6.943,2.703-15.237-1.946-21.443l-36.864-49.152h20.48c7.762,0,14.848-4.383,18.33-11.325
				c3.441-6.943,2.703-15.237-1.946-21.443l-61.44-81.92c-7.721-10.322-25.047-10.322-32.768,0l-61.44,81.92
				c-4.649,6.205-5.386,14.5-1.946,21.443c3.482,6.943,10.568,11.325,18.33,11.325h20.48L4.096,213
				c-4.649,6.205-5.386,14.5-1.946,21.443c3.482,6.943,10.568,11.325,18.33,11.325h40.96v81.92
				C61.44,338.993,70.594,348.168,81.92,348.168z"/>
			<path d="M450.558,163.848h20.48c7.762,0,14.848-4.383,18.33-11.325c3.461-6.943,2.703-15.237-1.946-21.443l-61.44-81.92
				c-7.721-10.322-25.047-10.322-32.768,0l-61.44,81.92c-4.649,6.205-5.386,14.5-1.925,21.443
				c3.482,6.943,10.547,11.325,18.309,11.325h20.48L331.774,213c-4.649,6.205-5.386,14.5-1.925,21.443
				c3.482,6.943,10.547,11.325,18.309,11.325h40.96v81.92c0,11.305,9.155,20.48,20.48,20.48s20.48-9.175,20.48-20.48v-81.92h40.96
				c7.762,0,14.848-4.383,18.33-11.325c3.461-6.943,2.703-15.237-1.946-21.443L450.558,163.848z"/>
		</g>
	</g>
</g>
<g>
</g>
<g>
</g>
<g>
</g>
<g>
</g>
<g>
</g>
<g>
</g>
<g>
</g>
<g>
</g>
<g>
</g>
<g>
</g>
<g>
</g>
<g>
</g>
<g>
</g>
<g>
</g>
<g>
</g>
</svg>
